<svg width="20" height="20" viewBox="0 0 20 20" fill="none" xmlns="http://www.w3.org/2000/svg">
<mask id="mask0_808_476" style="mask-type:alpha" maskUnits="userSpaceOnUse" x="0" y="0" width="20" height="20">
<rect width="20" height="20" fill="#D9D9D9"/>
</mask>
<g mask="url(#mask0_808_476)">
<path d="M9.99967 12.9793C9.88856 12.9793 9.7844 12.962 9.68717 12.9272C9.58995 12.8925 9.49967 12.8335 9.41634 12.7502L6.41634 9.75016C6.24967 9.5835 6.16981 9.38905 6.17676 9.16683C6.1837 8.94461 6.26356 8.75016 6.41634 8.5835C6.58301 8.41683 6.78092 8.33002 7.01009 8.32308C7.23926 8.31613 7.43717 8.396 7.60384 8.56266L9.16634 10.1252V4.16683C9.16634 3.93072 9.2462 3.7328 9.40592 3.57308C9.56565 3.41336 9.76356 3.3335 9.99967 3.3335C10.2358 3.3335 10.4337 3.41336 10.5934 3.57308C10.7531 3.7328 10.833 3.93072 10.833 4.16683V10.1252L12.3955 8.56266C12.5622 8.396 12.7601 8.31613 12.9893 8.32308C13.2184 8.33002 13.4163 8.41683 13.583 8.5835C13.7358 8.75016 13.8156 8.94461 13.8226 9.16683C13.8295 9.38905 13.7497 9.5835 13.583 9.75016L10.583 12.7502C10.4997 12.8335 10.4094 12.8925 10.3122 12.9272C10.215 12.962 10.1108 12.9793 9.99967 12.9793ZM4.99967 16.6668C4.54134 16.6668 4.14898 16.5036 3.82259 16.1772C3.4962 15.8509 3.33301 15.4585 3.33301 15.0002V13.3335C3.33301 13.0974 3.41287 12.8995 3.57259 12.7397C3.73231 12.58 3.93023 12.5002 4.16634 12.5002C4.40245 12.5002 4.60037 12.58 4.76009 12.7397C4.91981 12.8995 4.99967 13.0974 4.99967 13.3335V15.0002H14.9997V13.3335C14.9997 13.0974 15.0795 12.8995 15.2393 12.7397C15.399 12.58 15.5969 12.5002 15.833 12.5002C16.0691 12.5002 16.267 12.58 16.4268 12.7397C16.5865 12.8995 16.6663 13.0974 16.6663 13.3335V15.0002C16.6663 15.4585 16.5031 15.8509 16.1768 16.1772C15.8504 16.5036 15.458 16.6668 14.9997 16.6668H4.99967Z" fill="white"/>
</g>
</svg>
